<?xml version="1.0" encoding="utf-8"?>
<!-- Generator: Adobe Illustrator 28.0.0, SVG Export Plug-In . SVG Version: 6.00 Build 0)  -->
<svg version="1.1" id="Layer_1" xmlns="http://www.w3.org/2000/svg" xmlns:xlink="http://www.w3.org/1999/xlink" x="0px" y="0px"
	 viewBox="0 0 64 64" style="enable-background:new 0 0 64 64;" xml:space="preserve">
<style type="text/css">
	.st0{fill-rule:evenodd;clip-rule:evenodd;fill:#A970FF;}
	.st1{fill-rule:evenodd;clip-rule:evenodd;fill:#FFFFFF;}
</style>
<path class="st0" d="M7.5,2.4l-4,10.2v41.8h14.2l1.3,9.1l14.2-9.1h11.5l15.5-15.5V2.4H7.5z M55.1,36.2L46.1,45H32l-7.6,7.6v-7.5
	H12.5V7.7h42.6V36.2L55.1,36.2z M46.1,17.9v15.5h-5.3V17.9H46.1z M32,17.9v15.5h-5.3V17.9H32z"/>
<polygon class="st1" points="55.1,36.2 46.1,45 32,45 24.4,52.6 24.4,45 12.5,45 12.5,7.7 55.1,7.7 "/>
<rect x="40.8" y="17.9" class="st0" width="5.3" height="15.5"/>
<rect x="26.6" y="17.9" class="st0" width="5.3" height="15.5"/>
</svg>
